# xmcd
#
# Track frame offsets: 
#        150
#        17264
#        42254
#        64426
#        79641
#        102917
#        116327
#        134319
#        159328
#
# Disc length: 2398 seconds
#
# Revision: 0
# Processed by: cddbd v1.5.2PL0 Copyright (c) Steve Scherf et al.
# Submitted via: ExactAudioCopyFreeDBPlugin 1.0
#
DISCID=66095c09
DTITLE=Boyz II Men - TWENTY - DISC2
DYEAR=2011
DGENRE=R&B
TTITLE0=Motownphilly
TTITLE1=On Bended Knee
TTITLE2=Four Seasons of Loneliness
TTITLE3=Water Runs Dry
TTITLE4=A Song for Mama
TTITLE5=It's So Hard To Say Goodbye
TTITLE6=To Yesterday
TTITLE7=I'll Make Love To You
TTITLE8=End Of The Road
EXTD=
EXTT0=
EXTT1=
EXTT2=
EXTT3=
EXTT4=
EXTT5=
EXTT6=
EXTT7=
EXTT8=
PLAYORDER=
